<svg width="33" height="33" viewBox="0 0 33 33" fill="none" xmlns="http://www.w3.org/2000/svg">
<path fill-rule="evenodd" clip-rule="evenodd" d="M9.8333 4.83337C10.0985 4.83337 10.3529 4.93873 10.5404 5.12627C10.7279 5.3138 10.8333 5.56816 10.8333 5.83337V8.05737C14.6036 7.72223 18.3963 7.72223 22.1666 8.05737V5.83337C22.1666 5.56816 22.272 5.3138 22.4595 5.12627C22.6471 4.93873 22.9014 4.83337 23.1666 4.83337C23.4319 4.83337 23.6862 4.93873 23.8737 5.12627C24.0613 5.3138 24.1666 5.56816 24.1666 5.83337V8.25471C25.1394 8.39265 26.0402 8.84513 26.7317 9.54307C27.4231 10.241 27.8671 11.1461 27.996 12.12L28.112 12.9907C28.5973 16.652 28.5546 20.364 27.9866 24.0147C27.8497 24.8935 27.4247 25.702 26.7784 26.3131C26.1321 26.9241 25.3011 27.3032 24.416 27.3907L22.8253 27.548C18.6186 27.9624 14.3813 27.9624 10.1746 27.548L8.58397 27.3907C7.69884 27.3032 6.86785 26.9241 6.22154 26.3131C5.57524 25.702 5.15024 24.8935 5.0133 24.0147C4.44519 20.3649 4.40298 16.6525 4.88797 12.9907L5.00397 12.12C5.1328 11.1461 5.57684 10.241 6.26828 9.54307C6.95972 8.84513 7.86058 8.39265 8.8333 8.25471V5.83337C8.8333 5.56816 8.93866 5.3138 9.1262 5.12627C9.31373 4.93873 9.56809 4.83337 9.8333 4.83337ZM10.4266 10.104C14.4666 9.70537 18.5333 9.70537 22.5733 10.104L23.78 10.224C24.936 10.3374 25.86 11.232 26.0133 12.3827L26.1293 13.2534C26.1693 13.5574 26.2057 13.8618 26.2386 14.1667H6.7613C6.79419 13.8618 6.83064 13.5574 6.87064 13.2534L6.98664 12.3827C7.06063 11.8235 7.32156 11.3058 7.72701 10.9136C8.13247 10.5215 8.65862 10.278 9.21997 10.2227L10.4266 10.104ZM6.60264 16.1667C6.47174 18.6866 6.60131 21.2134 6.9893 23.7067C7.05802 24.1474 7.27117 24.5529 7.59527 24.8594C7.91937 25.1659 8.33608 25.356 8.77997 25.4L10.3706 25.5574C14.4466 25.96 18.5533 25.96 22.6293 25.5574L24.22 25.4C24.6639 25.356 25.0806 25.1659 25.4047 24.8594C25.7288 24.5529 25.9419 24.1474 26.0106 23.7067C26.4 21.2107 26.528 18.684 26.3973 16.1667H6.60264Z" fill="#AAAAAA"/>
</svg>
