<svg width="33" height="33" viewBox="0 0 33 33" fill="none" xmlns="http://www.w3.org/2000/svg">
<path d="M18.8946 6.01469C18.5838 5.69373 18.2116 5.43852 17.8003 5.26423C17.3889 5.08994 16.9467 5.00012 16.4999 5.00012C16.0531 5.00012 15.6109 5.08994 15.1995 5.26423C14.7882 5.43852 14.416 5.69373 14.1052 6.01469L7.70657 12.6227C7.33991 13.0014 7.09324 13.4814 6.99724 14.0014C6.2214 18.2389 6.16416 22.5768 6.82791 26.8334L7.06257 28.34C7.13724 28.816 7.54791 29.1667 8.02924 29.1667H12.4999C12.6767 29.1667 12.8463 29.0965 12.9713 28.9714C13.0963 28.8464 13.1666 28.6768 13.1666 28.5V19.1667H19.8332V28.5C19.8332 28.6768 19.9035 28.8464 20.0285 28.9714C20.1535 29.0965 20.3231 29.1667 20.4999 29.1667H24.9706C25.2038 29.1674 25.4296 29.0844 25.6068 28.9327C25.784 28.7809 25.9008 28.5706 25.9359 28.34L26.1719 26.8334C26.8357 22.5768 26.7784 18.2389 26.0026 14.0014C25.9075 13.4815 25.6602 13.0017 25.2919 12.6227L18.8946 6.01469Z" fill="#642CC1"/>
</svg>
