<svg width="33" height="33" viewBox="0 0 33 33" fill="none" xmlns="http://www.w3.org/2000/svg">
<path fill-rule="evenodd" clip-rule="evenodd" d="M16.5 4.60667L13.5494 7.65734C13.3939 7.81811 13.2076 7.94594 13.0017 8.03321C12.7958 8.12049 12.5744 8.16542 12.3507 8.16534H8.16671V12.3493C8.16671 12.8027 7.98271 13.2347 7.65871 13.5493L4.60538 16.5L7.65871 19.4507C7.98271 19.764 8.16671 20.1973 8.16671 20.6493V24.8333H12.3507C12.804 24.8333 13.236 25.0173 13.5507 25.3413L16.5 28.3947L19.4507 25.3413C19.6062 25.1806 19.7925 25.0527 19.9984 24.9655C20.2043 24.8782 20.4257 24.8332 20.6494 24.8333H24.8334V20.6493C24.8334 20.196 25.0174 19.764 25.3414 19.4493L28.3947 16.5L25.3414 13.5493C25.1806 13.3938 25.0528 13.2076 24.9655 13.0017C24.8782 12.7957 24.8333 12.5743 24.8334 12.3507V8.16667H20.6494C20.4255 8.16693 20.2038 8.12209 19.9977 8.03481C19.7915 7.94753 19.605 7.8196 19.4494 7.65867L16.5 4.60667ZM15.3014 2.96667C15.4568 2.80578 15.643 2.67782 15.849 2.59043C16.0549 2.50304 16.2763 2.45801 16.5 2.45801C16.7238 2.45801 16.9452 2.50304 17.1511 2.59043C17.357 2.67782 17.5433 2.80578 17.6987 2.96667L20.7907 6.16667H25.1667C26.0867 6.16667 26.8334 6.91334 26.8334 7.83334V12.2093L30.0334 15.3027C30.1941 15.4581 30.3218 15.6442 30.4091 15.85C30.4964 16.0559 30.5414 16.2771 30.5414 16.5007C30.5414 16.7242 30.4964 16.9455 30.4091 17.1513C30.3218 17.3571 30.1941 17.5433 30.0334 17.6987L26.8334 20.7907V25.1667C26.8334 26.0867 26.0867 26.8333 25.1667 26.8333H20.7907L17.6974 30.0333C17.542 30.194 17.3558 30.3218 17.15 30.4091C16.9442 30.4963 16.7229 30.5413 16.4994 30.5413C16.2758 30.5413 16.0546 30.4963 15.8488 30.4091C15.6429 30.3218 15.4568 30.194 15.3014 30.0333L12.2094 26.8333H7.83338C6.91338 26.8333 6.16671 26.0867 6.16671 25.1667V20.7907L2.96671 17.6973C2.80603 17.5419 2.67825 17.3558 2.59098 17.15C2.50371 16.9441 2.45874 16.7229 2.45874 16.4993C2.45874 16.2758 2.50371 16.0545 2.59098 15.8487C2.67825 15.6429 2.80603 15.4567 2.96671 15.3013L6.16671 12.2093V7.83334C6.16671 6.91334 6.91338 6.16667 7.83338 6.16667H12.2094L15.3014 2.96667Z" fill="#AAAAAA"/>
<path fill-rule="evenodd" clip-rule="evenodd" d="M10.1667 16.5C10.1667 14.8203 10.834 13.2093 12.0217 12.0216C13.2095 10.8339 14.8204 10.1666 16.5001 10.1666C18.1798 10.1666 19.7907 10.8339 20.9784 12.0216C22.1662 13.2093 22.8334 14.8203 22.8334 16.5C22.8334 18.1797 22.1662 19.7906 20.9784 20.9783C19.7907 22.166 18.1798 22.8333 16.5001 22.8333C14.8204 22.8333 13.2095 22.166 12.0217 20.9783C10.834 19.7906 10.1667 18.1797 10.1667 16.5ZM16.5001 12.1666C15.3508 12.1666 14.2486 12.6232 13.436 13.4358C12.6233 14.2485 12.1667 15.3507 12.1667 16.5C12.1667 17.6492 12.6233 18.7514 13.436 19.5641C14.2486 20.3767 15.3508 20.8333 16.5001 20.8333C17.6494 20.8333 18.7516 20.3767 19.5642 19.5641C20.3769 18.7514 20.8334 17.6492 20.8334 16.5C20.8334 15.3507 20.3769 14.2485 19.5642 13.4358C18.7516 12.6232 17.6494 12.1666 16.5001 12.1666Z" fill="#AAAAAA"/>
</svg>
